# File generated by ImageToStl.com - Free Image and 3D model conversion tools

o obj1
v 1 0 7
v 0.30901623 0.95105648 -7
v 0.30901623 0.95105648 7
v 1 0 -7
v -0.80901623 -0.58778477 -7
v -0.80901623 0.58778477 7
v -0.80901623 0.58778477 -7
v -0.80901623 -0.58778477 7
v 2.5 0 7
v 1.76776695 -1.76776695 7
v 1.76776695 1.76776695 7
v 0.30901623 -0.95105648 7
v 0 -2.5 7
v -2.5 0 7
v -1.76776695 -1.76776695 7
v 0 2.5 7
v -1.76776695 1.76776695 7
v 0.30901623 -0.95105648 -7
v 0 0 13
vn 0.80902 0.58779 0
vn -1 0 0
vn -0.30902 0.95106 0
vn 0 0 -1
vn 0.80902 -0.58779 0
vn -0.30902 -0.95106 0
vn 0.8622 0.35714 0.35925
vn -0.8622 -0.35714 0.35925
vn -0.35714 0.8622 0.35925
vn 0.35714 0.8622 0.35925
vn 0.35714 -0.8622 0.35925
vn -0.8622 0.35714 0.35925
vn -0.35714 -0.8622 0.35925
vn 0.8622 -0.35714 0.35925
f 1//1 2//1 3//1
f 2//1 1//1 4//1
f 5//2 6//2 7//2
f 6//2 5//2 8//2
f 2//3 6//3 3//3
f 6//3 2//3 7//3
f 1//4 9//4 10//4
f 9//4 1//4 11//4
f 10//4 12//4 1//4
f 13//4 12//4 10//4
f 13//4 8//4 12//4
f 14//4 8//4 15//4
f 15//4 8//4 13//4
f 3//4 11//4 1//4
f 3//4 16//4 11//4
f 6//4 16//4 3//4
f 6//4 17//4 16//4
f 8//4 14//4 6//4
f 6//4 14//4 17//4
f 18//4 2//4 4//4
f 5//4 2//4 18//4
f 2//4 5//4 7//4
f 12//5 4//5 1//5
f 4//5 12//5 18//5
f 5//6 12//6 8//6
f 12//6 5//6 18//6
f 11//7 19//7 9//7
f 19//8 14//8 15//8
f 16//9 17//9 19//9
f 16//10 19//10 11//10
f 19//11 13//11 10//11
f 17//12 14//12 19//12
f 19//13 15//13 13//13
f 9//14 19//14 10//14
# Vertices: 19, normals: 14, texture coordinates: 0, faces: 34

